<svg id="Layer_1" data-name="Layer 1" xmlns="http://www.w3.org/2000/svg" viewBox="0 0 100 100"><defs><style>.cls-1{fill:#b2774f;}.cls-2{fill:#fff473;}</style></defs><rect class="cls-1" width="100" height="100"/><path class="cls-2" d="M51.24,59.54,50,66l-1.24-6.47a10.58,10.58,0,0,0-8.4-8.4L33.9,49.9l6.46-1.24a10.57,10.57,0,0,0,8.4-8.39L50,33.8l1.24,6.47a10.57,10.57,0,0,0,8.4,8.39L66.1,49.9l-6.46,1.24A10.58,10.58,0,0,0,51.24,59.54Z"/><path class="cls-2" d="M50.07,2.5c-28,0-47.5,19.59-47.5,47.64C2.57,78,22.1,97.5,50.07,97.5S97.43,78,97.43,50.14C97.43,22.09,78,2.5,50.07,2.5Zm0,2.77c22.95,0,39,18.45,39,44.87,0,26.25-16,44.59-39,44.59S11,76.39,11,50.14C11,23.72,27,5.27,50.07,5.27Z"/></svg>